<?xml version="1.0" encoding="utf-8"?>
<!-- Generator: Adobe Illustrator 24.1.2, SVG Export Plug-In . SVG Version: 6.00 Build 0)  -->
<svg version="1.1" id="Camada_1" xmlns="http://www.w3.org/2000/svg" xmlns:xlink="http://www.w3.org/1999/xlink" x="0px" y="0px"
	 viewBox="0 0 18 35.2" style="enable-background:new 0 0 18 35.2;" xml:space="preserve">
<style type="text/css">
	.st0{fill:#9C8AFF;}
</style>
<g transform="translate(-139 -5)">
	<path class="st0" d="M150.8,40.2c-0.2,0-0.3,0-0.4,0c-2.4,0-4.8,0-7.2,0c-0.3,0-0.4-0.1-0.4-0.4c0-5.6,0-11.1,0-16.7v-0.5H139v-5.9
		h0.4c1,0,2.1,0,3.1,0c0.3,0,0.3-0.1,0.3-0.3c0-1.6,0-3.1,0-4.7c0-1.1,0.2-2.2,0.7-3.1c0.7-1.3,1.9-2.4,3.3-2.9
		c1.2-0.4,2.4-0.7,3.7-0.7c2,0,4.1,0,6.1,0c0.2,0,0.3,0,0.3,0.3c0,1.9,0,3.8,0,5.8c0,0,0,0.1,0,0.1h-0.4c-1.3,0-2.5,0-3.8,0
		c-0.7,0-1.3,0.3-1.7,0.9c-0.1,0.2-0.2,0.4-0.2,0.7c0,1.2,0,2.4,0,3.6c0,0.3,0.1,0.4,0.4,0.4c1.7,0,3.5,0,5.2,0h0.5
		c-0.2,2-0.5,4-0.7,5.9h-5.4C150.8,28.5,150.8,34.3,150.8,40.2z"/>
</g>
</svg>
