<?xml version="1.0" encoding="utf-8"?>
<!-- Generator: Adobe Illustrator 24.1.2, SVG Export Plug-In . SVG Version: 6.00 Build 0)  -->
<svg version="1.1" id="Camada_1" xmlns="http://www.w3.org/2000/svg" xmlns:xlink="http://www.w3.org/1999/xlink" x="0px" y="0px"
	 viewBox="0 0 35.2 35.2" style="enable-background:new 0 0 35.2 35.2;" xml:space="preserve">
<style type="text/css">
	.st0{fill:#9C8AFF;}
</style>
<g transform="translate(-9.1 -8.869)">
	<path class="st0" d="M44.3,26.5c0,2.5,0,4.9,0,7.4c0.1,4.1-2.4,7.7-6.1,9.3c-1.4,0.6-2.9,0.9-4.4,0.9c-4.8,0-9.6,0.1-14.3,0
		c-3.5,0-6.7-1.7-8.7-4.5c-1.1-1.5-1.7-3.4-1.6-5.3V19c0-4.2,2-7.1,5.6-8.9c1.6-0.8,3.3-1.2,5-1.2c4.6,0,9.3,0,13.9,0
		c3.5-0.1,6.8,1.5,8.8,4.3c1.2,1.6,1.9,3.5,1.8,5.5L44.3,26.5z M11.7,26.5v7.8c0,1.1,0.3,2.3,0.9,3.2c1.4,2.5,4.1,4,6.9,3.9
		c4.8,0.1,9.5,0,14.3,0c1.2,0,2.3-0.2,3.4-0.7c2.8-1.1,4.6-3.9,4.5-6.9c0-5,0-10.1,0-15.1c0-1.4-0.4-2.8-1.3-3.9
		c-1.5-2.1-4-3.4-6.6-3.3c-4.8-0.1-9.5,0-14.3,0c-1,0-2,0.2-2.9,0.6c-3,1-5,3.9-4.9,7.1C11.8,21.6,11.7,24,11.7,26.5z"/>
	<path class="st0" d="M26.7,34c-4.5-0.1-8.1-3.8-8.1-8.3s3.8-8.1,8.3-8.1c4.5,0.1,8.1,3.7,8.1,8.2C35,30.4,31.3,34,26.7,34z
		 M26.7,31.4c3.1-0.1,5.5-2.6,5.4-5.7c-0.1-3.1-2.6-5.5-5.7-5.4c-3,0.1-5.4,2.5-5.4,5.5C21.1,28.9,23.6,31.4,26.7,31.4
		C26.7,31.4,26.7,31.4,26.7,31.4L26.7,31.4z"/>
	<path class="st0" d="M36,15.2c1,0,1.8,0.7,1.9,1.7c0,1-0.7,1.8-1.7,1.9c-1,0-1.8-0.7-1.9-1.7c0,0,0,0,0-0.1
		C34.2,16,35,15.2,36,15.2z"/>
</g>
</svg>
