<?xml version="1.0" encoding="utf-8"?>
<!-- Generator: Adobe Illustrator 24.1.2, SVG Export Plug-In . SVG Version: 6.00 Build 0)  -->
<svg version="1.1" id="Camada_1" xmlns="http://www.w3.org/2000/svg" xmlns:xlink="http://www.w3.org/1999/xlink" x="0px" y="0px"
	 viewBox="0 0 42.8 35" style="enable-background:new 0 0 42.8 35;" xml:space="preserve">
<style type="text/css">
	.st0{fill:#9C8AFF;}
</style>
<g transform="translate(-3.3 -73.51)">
	<path class="st0" d="M3.4,104.6c4.6,0.5,9.2-0.8,12.8-3.7c-3.8-0.1-7-2.6-8.3-6.2c1.3,0.2,2.6,0.2,3.9-0.2c-4.4-1.4-6.7-4.2-7-8.8
		c1.2,0.6,2.6,1,4,1.1c-2.5-1.7-4-4.6-3.9-7.6c0-1.5,0.4-2.9,1.2-4.1c4.5,5.5,11.1,8.8,18.2,9.2c0-0.3-0.1-0.6-0.1-0.8
		c-0.7-4.7,2.5-9,7.1-9.9c2.8-0.6,5.7,0.2,7.7,2.2c0.3,0.3,0.7,0.4,1.1,0.3c1.7-0.4,3.3-1.1,4.9-1.9c-0.6,1.9-1.9,3.6-3.5,4.7
		c0.4-0.1,0.8-0.1,1.2-0.2c0.4-0.1,0.8-0.2,1.2-0.3c0.4-0.1,0.8-0.2,1.1-0.3c0.4-0.1,0.8-0.3,1.2-0.3c-0.2,0.3-0.4,0.6-0.7,0.9
		c-1,1.2-2.1,2.3-3.4,3.3c-0.1,0.1-0.2,0.3-0.2,0.5c0.2,8.9-4.2,17.3-11.6,22.2c-2.5,1.6-5.2,2.7-8.1,3.3c-2.8,0.6-5.8,0.7-8.6,0.4
		c-2.9-0.3-5.7-1.2-8.2-2.5c-0.7-0.3-1.3-0.7-2-1.1C3.3,104.7,3.3,104.6,3.4,104.6z"/>
</g>
</svg>
